<svg width="25" height="25" viewBox="0 0 25 25" fill="none" xmlns="http://www.w3.org/2000/svg">
<g clip-path="url(#clip0_101_14)">
<path fill-rule="evenodd" clip-rule="evenodd" d="M15.4903 14.8182H16.2318L20.2111 18.814C20.5959 19.1986 20.5959 19.827 20.2111 20.2116C19.8263 20.5961 19.1975 20.5961 18.8127 20.2116L14.824 16.2252V15.4842L14.5706 15.2216C13.2567 16.3471 11.4641 16.9287 9.5589 16.6098C6.94982 16.1689 4.8663 13.9928 4.54721 11.3665C4.05918 7.39891 7.40031 4.05974 11.3702 4.54749C13.9981 4.86639 16.1755 6.94869 16.6166 9.55624C16.9357 11.4603 16.3538 13.2518 15.2276 14.565L15.4903 14.8182ZM6.37811 10.5988C6.37811 12.9343 8.26454 14.8197 10.6015 14.8197C12.9384 14.8197 14.8248 12.9343 14.8248 10.5988C14.8248 8.26325 12.9384 6.37793 10.6015 6.37793C8.26454 6.37793 6.37811 8.26325 6.37811 10.5988Z" fill="#3FB56E"/>
</g>
<defs>
<clipPath id="clip0_101_14">
<rect x="0.5" y="0.5" width="24" height="24" rx="10" fill="white"/>
</clipPath>
</defs>
</svg>
