<svg width="32" height="32" viewBox="0 0 32 32" fill="none" xmlns="http://www.w3.org/2000/svg">
<path fill-rule="evenodd" clip-rule="evenodd" d="M30.2155 8.76695C30.4289 7.96995 30.4516 7.16679 30.3116 6.40596C29.7705 7.64418 28.398 8.34514 27.0449 8.00215C26.6022 7.88994 26.2108 7.67848 25.8886 7.39758C25.7482 7.2941 25.6205 7.17372 25.5084 7.03882C25.3115 6.8019 25.1675 6.52564 25.0859 6.22853L25.0776 6.19737C24.9028 5.69531 24.8681 5.1382 25.0083 4.58438C25.292 3.46358 26.212 2.67216 27.2849 2.49808C27.0098 2.37102 26.7203 2.2656 26.4177 2.18447C23.7235 1.46207 20.9588 2.92338 20 5.48417C20.6264 6.03556 21.1832 6.66411 21.6558 7.35498C21.6578 7.07346 21.6953 6.78754 21.7715 6.50283C21.9851 5.70519 22.4667 5.05152 23.0932 4.61257C23.061 4.73859 23.0347 4.86627 23.0142 4.99523C22.9204 5.58746 22.954 6.19291 23.1127 6.77111C23.2715 7.34931 23.5518 7.88692 23.9349 8.348C24.318 8.80908 24.7951 9.18299 25.3342 9.44473C25.8733 9.70648 26.462 9.85003 27.0611 9.86577C27.1421 9.8679 27.223 9.86769 27.3038 9.86515C26.4826 10.6161 25.308 10.9446 24.1548 10.6354C23.7035 10.5144 23.2982 10.3072 22.9518 10.0361C23.0495 10.3517 23.132 10.6739 23.1984 11.002C23.2646 10.9999 23.3311 10.9988 23.3978 10.9988C24.8162 10.9988 26.1196 11.4913 27.1466 12.3147C28.6052 11.6869 29.7726 10.4209 30.2155 8.76695Z" fill="url(#paint0_linear_212_1511)"/>
<path fill-rule="evenodd" clip-rule="evenodd" d="M2 13C2 16.94 3.99765 20.3961 7 22.3388V19.8265C5.1719 18.1872 4 15.7548 4 13C4 7.96046 7.92179 4 12.6083 4C16.5839 4 20.0091 6.85004 20.9569 10.7911L20.9599 10.7899C21.0937 11.3367 21.1791 11.9037 21.2108 12.4855C21.8339 12.1732 22.5272 12 23.2493 12C25.8053 12 28 14.1696 28 17C28 19.1518 26.7314 20.9218 25 21.6467V23.7623C27.8796 22.9627 30 20.2381 30 17C30 13.134 26.9776 10 23.2493 10C23.1054 10 22.9626 10.0047 22.821 10.0139C21.5661 5.38976 17.469 2 12.6083 2C6.74949 2 2 6.92487 2 13ZM17.2565 24.5204L18 24L17.2565 23.4796L17.4142 22.5858L16.5204 22.7435L16 22L15.4796 22.7435L14.5858 22.5858L14.7435 23.4796L14 24L14.7435 24.5204L14.5858 25.4142L15.4796 25.2565L16 26L16.5204 25.2565L17.4142 25.4142L17.2565 24.5204ZM14.8284 20L14.0849 20.5204L14.2426 21.4142L13.3489 21.2565L12.8284 22L12.308 21.2565L11.4142 21.4142L11.572 20.5204L10.8284 20L11.572 19.4796L11.4142 18.5858L12.308 18.7435L12.8284 18L13.3489 18.7435L14.2426 18.5858L14.0849 19.4796L14.8284 20ZM14.0849 28.5204L14.8284 28L14.0849 27.4796L14.2426 26.5858L13.3489 26.7435L12.8284 26L12.308 26.7435L11.4142 26.5858L11.572 27.4796L10.8284 28L11.572 28.5204L11.4142 29.4142L12.308 29.2565L12.8284 30L13.3489 29.2565L14.2426 29.4142L14.0849 28.5204ZM24 24L23.2565 24.5204L23.4142 25.4142L22.5204 25.2565L22 26L21.4796 25.2565L20.5858 25.4142L20.7435 24.5204L20 24L20.7435 23.4796L20.5858 22.5858L21.4796 22.7435L22 22L22.5204 22.7435L23.4142 22.5858L23.2565 23.4796L24 24ZM20.0849 20.5204L20.8284 20L20.0849 19.4796L20.2426 18.5858L19.3489 18.7435L18.8284 18L18.308 18.7435L17.4142 18.5858L17.572 19.4796L16.8284 20L17.572 20.5204L17.4142 21.4142L18.308 21.2565L18.8284 22L19.3489 21.2565L20.2426 21.4142L20.0849 20.5204ZM20.8284 28L20.0849 28.5204L20.2426 29.4142L19.3489 29.2565L18.8284 30L18.308 29.2565L17.4142 29.4142L17.572 28.5204L16.8284 28L17.572 27.4796L17.4142 26.5858L18.308 26.7435L18.8284 26L19.3489 26.7435L20.2426 26.5858L20.0849 27.4796L20.8284 28ZM11.0849 24.5204L11.8284 24L11.0849 23.4796L11.2426 22.5858L10.3489 22.7435L9.82843 22L9.30798 22.7435L8.41422 22.5858L8.57195 23.4796L7.82843 24L8.57195 24.5204L8.41422 25.4142L9.30798 25.2565L9.82843 26L10.3489 25.2565L11.2426 25.4142L11.0849 24.5204Z" fill="url(#paint1_linear_212_1511)"/>
<defs>
<linearGradient id="paint0_linear_212_1511" x1="25.1999" y1="2" x2="25.1999" y2="12.3147" gradientUnits="userSpaceOnUse">
<stop stop-color="#F5BD52"/>
<stop offset="1" stop-color="#F5DA79"/>
</linearGradient>
<linearGradient id="paint1_linear_212_1511" x1="16" y1="2" x2="16" y2="30" gradientUnits="userSpaceOnUse">
<stop stop-color="#B2D4F7"/>
<stop offset="1" stop-color="#D9E2F3"/>
</linearGradient>
</defs>
</svg>
