<svg width="32" height="32" viewBox="0 0 32 32" fill="none" xmlns="http://www.w3.org/2000/svg">
<path fill-rule="evenodd" clip-rule="evenodd" d="M30.2155 8.76695C30.4289 7.96995 30.4516 7.16679 30.3116 6.40596C29.7705 7.64418 28.398 8.34514 27.0449 8.00215C26.6022 7.88994 26.2108 7.67848 25.8886 7.39758C25.7482 7.2941 25.6205 7.17372 25.5084 7.03882C25.3115 6.8019 25.1675 6.52564 25.0859 6.22853L25.0776 6.19737C24.9028 5.69531 24.8681 5.1382 25.0083 4.58438C25.292 3.46358 26.212 2.67216 27.2849 2.49808C27.0098 2.37102 26.7203 2.2656 26.4177 2.18447C23.7235 1.46207 20.9588 2.92338 20 5.48417C20.6264 6.03556 21.1832 6.66411 21.6558 7.35498C21.6578 7.07346 21.6953 6.78754 21.7715 6.50283C21.9851 5.70519 22.4667 5.05152 23.0932 4.61257C23.061 4.73859 23.0347 4.86627 23.0142 4.99523C22.9204 5.58746 22.954 6.19291 23.1127 6.77111C23.2715 7.34931 23.5518 7.88692 23.9349 8.348C24.318 8.80908 24.7951 9.18299 25.3342 9.44473C25.8733 9.70648 26.462 9.85003 27.0611 9.86577C27.1421 9.8679 27.223 9.86769 27.3038 9.86515C26.4826 10.6161 25.308 10.9446 24.1548 10.6354C23.7035 10.5144 23.2982 10.3072 22.9518 10.0361C23.0495 10.3517 23.132 10.6739 23.1984 11.002C23.2646 10.9999 23.3311 10.9988 23.3978 10.9988C24.8162 10.9988 26.1196 11.4913 27.1466 12.3147C28.6052 11.6869 29.7726 10.4209 30.2155 8.76695Z" fill="url(#paint0_linear_212_1437)"/>
<path fill-rule="evenodd" clip-rule="evenodd" d="M9 23.3473C4.91752 21.8163 2 17.7615 2 13C2 6.92487 6.74949 2 12.6083 2C17.469 2 21.5661 5.38976 22.821 10.0139C22.9626 10.0047 23.1054 10 23.2493 10C26.9776 10 30 13.134 30 17C30 20.866 26.9776 24 23.2493 24C23.1658 24 23.0827 23.9984 23 23.9953V22H23.3029V21.9996C25.8359 21.9695 28 19.8105 28 17C28 14.1696 25.8053 12 23.2493 12C22.5272 12 21.8339 12.1732 21.2108 12.4855C21.1791 11.9037 21.0937 11.3367 20.9599 10.7899L20.9569 10.7911C20.0091 6.85004 16.5839 4 12.6083 4C7.92179 4 4 7.96046 4 13C4 16.6616 6.0703 19.7535 9 21.1706V23.3473Z" fill="url(#paint1_linear_212_1437)"/>
<path fill-rule="evenodd" clip-rule="evenodd" d="M17.1681 16.4453L18.8322 17.5547L15.8686 22H20.9559L15.4775 29.5855L13.8561 28.4145L17.0444 24H12.1316L17.1681 16.4453Z" fill="url(#paint2_linear_212_1437)"/>
<path fill-rule="evenodd" clip-rule="evenodd" d="M18.3609 28.9244C18.1533 29.4108 18.0009 29.9308 18.001 30.4091C18.0013 31.2877 18.6731 32 19.5015 32C20.33 32 21.0013 31.2877 21.001 30.4091C21.0009 29.9619 20.8327 29.4321 20.609 28.9252C20.1643 27.9175 19.5 27 19.5 27C19.5 27 18.8044 27.8856 18.3609 28.9244Z" fill="url(#paint3_linear_212_1437)"/>
<path fill-rule="evenodd" clip-rule="evenodd" d="M11.3609 28.9244C11.1533 29.4108 11.0009 29.9308 11.001 30.4091C11.0013 31.2877 11.6731 32 12.5015 32C13.33 32 14.0013 31.2877 14.001 30.4091C14.0009 29.9619 13.8327 29.4321 13.609 28.9252C13.1643 27.9175 12.5 27 12.5 27C12.5 27 11.8044 27.8856 11.3609 28.9244Z" fill="url(#paint4_linear_212_1437)"/>
<path fill-rule="evenodd" clip-rule="evenodd" d="M24.3609 28.9244C24.1533 29.4108 24.0009 29.9308 24.001 30.4091C24.0013 31.2877 24.6731 32 25.5015 32C26.33 32 27.0013 31.2877 27.001 30.4091C27.0009 29.9619 26.8327 29.4321 26.609 28.9252C26.1643 27.9175 25.5 27 25.5 27C25.5 27 24.8044 27.8856 24.3609 28.9244Z" fill="url(#paint5_linear_212_1437)"/>
<path fill-rule="evenodd" clip-rule="evenodd" d="M5.36092 28.9244C5.15328 29.4108 5.0009 29.9308 5.00105 30.4091C5.00132 31.2877 5.67311 32 6.50153 32C7.32996 32 8.00132 31.2877 8.00105 30.4091C8.00091 29.9619 7.83274 29.4321 7.60902 28.9252C7.16427 27.9175 6.5 27 6.5 27C6.5 27 5.80441 27.8856 5.36092 28.9244Z" fill="url(#paint6_linear_212_1437)"/>
<path fill-rule="evenodd" clip-rule="evenodd" d="M8.36092 25.9244C8.15328 26.4108 8.0009 26.9308 8.00105 27.4091C8.00132 28.2877 8.67311 29 9.50153 29C10.33 29 11.0013 28.2877 11.001 27.4091C11.0009 26.9619 10.8327 26.4321 10.609 25.9252C10.1643 24.9175 9.5 24 9.5 24C9.5 24 8.80441 24.8856 8.36092 25.9244Z" fill="url(#paint7_linear_212_1437)"/>
<path fill-rule="evenodd" clip-rule="evenodd" d="M21.3609 25.9244C21.1533 26.4108 21.0009 26.9308 21.001 27.4091C21.0013 28.2877 21.6731 29 22.5015 29C23.33 29 24.0013 28.2877 24.001 27.4091C24.0009 26.9619 23.8327 26.4321 23.609 25.9252C23.1643 24.9175 22.5 24 22.5 24C22.5 24 21.8044 24.8856 21.3609 25.9244Z" fill="url(#paint8_linear_212_1437)"/>
<defs>
<linearGradient id="paint0_linear_212_1437" x1="25.1999" y1="2" x2="25.1999" y2="12.3147" gradientUnits="userSpaceOnUse">
<stop stop-color="#F5BD52"/>
<stop offset="1" stop-color="#F5DA79"/>
</linearGradient>
<linearGradient id="paint1_linear_212_1437" x1="16" y1="2" x2="16" y2="24" gradientUnits="userSpaceOnUse">
<stop stop-color="#95B6F6"/>
<stop offset="1" stop-color="#5193DE"/>
</linearGradient>
<linearGradient id="paint2_linear_212_1437" x1="16.5437" y1="16.4453" x2="16.5437" y2="29.5855" gradientUnits="userSpaceOnUse">
<stop stop-color="#F5BD52"/>
<stop offset="1" stop-color="#F5DA79"/>
</linearGradient>
<linearGradient id="paint3_linear_212_1437" x1="19.5" y1="27" x2="19.5" y2="32" gradientUnits="userSpaceOnUse">
<stop stop-color="#95B6F6"/>
<stop offset="1" stop-color="#5193DE"/>
</linearGradient>
<linearGradient id="paint4_linear_212_1437" x1="12.5" y1="27" x2="12.5" y2="32" gradientUnits="userSpaceOnUse">
<stop stop-color="#95B6F6"/>
<stop offset="1" stop-color="#5193DE"/>
</linearGradient>
<linearGradient id="paint5_linear_212_1437" x1="25.5" y1="27" x2="25.5" y2="32" gradientUnits="userSpaceOnUse">
<stop stop-color="#95B6F6"/>
<stop offset="1" stop-color="#5193DE"/>
</linearGradient>
<linearGradient id="paint6_linear_212_1437" x1="6.5" y1="27" x2="6.5" y2="32" gradientUnits="userSpaceOnUse">
<stop stop-color="#95B6F6"/>
<stop offset="1" stop-color="#5193DE"/>
</linearGradient>
<linearGradient id="paint7_linear_212_1437" x1="9.5" y1="24" x2="9.5" y2="29" gradientUnits="userSpaceOnUse">
<stop stop-color="#95B6F6"/>
<stop offset="1" stop-color="#5193DE"/>
</linearGradient>
<linearGradient id="paint8_linear_212_1437" x1="22.5" y1="24" x2="22.5" y2="29" gradientUnits="userSpaceOnUse">
<stop stop-color="#95B6F6"/>
<stop offset="1" stop-color="#5193DE"/>
</linearGradient>
</defs>
</svg>
